<svg width="256" height="200" viewBox="0 0 256 200" fill="none" xmlns="http://www.w3.org/2000/svg">
<rect x="5" y="5" width="246" height="190" fill="white"/>
<path d="M77.6738 46.6C77.6738 50.92 76.5271 54.12 74.2338 56.2C71.9404 58.2267 68.5538 59.24 64.0738 59.24H55.7538V81H48.7938V25H63.9138C68.4471 25 71.8604 26.0133 74.1538 28.04C76.5004 30.0133 77.6738 33.16 77.6738 37.48V46.6ZM70.7138 36.76C70.7138 34.7333 70.2338 33.2667 69.2738 32.36C68.3671 31.4533 66.9004 31 64.8738 31H55.7538V53.24H64.8738C66.9004 53.24 68.3671 52.7867 69.2738 51.88C70.2338 50.92 70.7138 49.4267 70.7138 47.4V36.76ZM102.877 75.16V30.84H95.6769V25H117.037V30.84H109.837V75.16H117.037V81H95.6769V75.16H102.877ZM151.12 81C146.48 81 142.907 79.88 140.4 77.64C137.947 75.3467 136.72 71.9333 136.72 67.4V38.6C136.72 34.0667 137.947 30.68 140.4 28.44C142.907 26.1467 146.48 25 151.12 25H162.48V31.08H150.32C148.347 31.08 146.747 31.6667 145.52 32.84C144.293 34.0133 143.68 35.4267 143.68 37.08V68.92C143.68 70.5733 144.293 71.9867 145.52 73.16C146.747 74.3333 148.347 74.92 150.32 74.92H162.48V81H151.12ZM208.803 67.4C208.803 71.9333 207.55 75.3467 205.043 77.64C202.59 79.88 199.043 81 194.403 81H191.203C186.563 81 182.99 79.88 180.483 77.64C178.03 75.3467 176.803 71.9333 176.803 67.4V38.6C176.803 34.0667 178.03 30.68 180.483 28.44C182.99 26.1467 186.563 25 191.203 25H194.403C199.043 25 202.59 26.1467 205.043 28.44C207.55 30.68 208.803 34.0667 208.803 38.6V67.4ZM201.843 37.08C201.843 35.4267 201.23 34.0133 200.003 32.84C198.776 31.6667 197.176 31.08 195.203 31.08H190.403C188.43 31.08 186.83 31.6667 185.603 32.84C184.376 34.0133 183.763 35.4267 183.763 37.08V68.92C183.763 70.5733 184.376 71.9867 185.603 73.16C186.83 74.3333 188.43 74.92 190.403 74.92H195.203C197.176 74.92 198.776 74.3333 200.003 73.16C201.23 71.9867 201.843 70.5733 201.843 68.92V37.08Z" fill="black"/>
<path d="M53.1922 139.96V145.8H35.4322V171H28.4722V115H55.1922V120.84H35.4322V139.96H53.1922ZM98.1553 115V120.84H78.3953V139.16H96.1553V145H78.3953V165.16H98.1553V171H71.4353V115H98.1553ZM124.478 171V121.08H111.758V115H144.158V121.08H131.438V171H124.478ZM172.722 171C168.082 171 164.508 169.88 162.002 167.64C159.548 165.347 158.322 161.933 158.322 157.4V128.6C158.322 124.067 159.548 120.68 162.002 118.44C164.508 116.147 168.082 115 172.722 115H184.082V121.08H171.922C169.948 121.08 168.348 121.667 167.122 122.84C165.895 124.013 165.282 125.427 165.282 127.08V158.92C165.282 160.573 165.895 161.987 167.122 163.16C168.348 164.333 169.948 164.92 171.922 164.92H184.082V171H172.722ZM206.165 145.24V171H199.205V115H206.165V139.32H222.645V115H229.605V171H222.645V145.24H206.165Z" fill="black"/>
<rect x="5" y="5" width="246" height="190" stroke="black" stroke-width="10"/>
</svg>
